<svg xmlns="http://www.w3.org/2000/svg" viewBox="0 0 200 240" width="200" height="240">
  <!-- Zakumi - yellow leopard with brown spots -->
  <!-- Body -->
  <ellipse cx="100" cy="165" rx="30" ry="35" fill="#fbbf24"/>
  <!-- Arms -->
  <path d="M70,155 Q55,145 50,155 Q48,162 55,165" fill="#fbbf24" stroke="#d97706" stroke-width="1"/>
  <path d="M130,155 Q145,145 150,155 Q152,162 145,165" fill="#fbbf24" stroke="#d97706" stroke-width="1"/>
  <!-- Legs -->
  <rect x="82" y="192" width="12" height="20" rx="6" fill="#fbbf24"/>
  <rect x="106" y="192" width="12" height="20" rx="6" fill="#fbbf24"/>
  <!-- Feet -->
  <ellipse cx="88" cy="214" rx="9" ry="5" fill="#d97706"/>
  <ellipse cx="112" cy="214" rx="9" ry="5" fill="#d97706"/>

  <!-- Head -->
  <circle cx="100" cy="110" r="32" fill="#fbbf24"/>
  <!-- Inner face (lighter/cream) -->
  <ellipse cx="100" cy="115" rx="22" ry="20" fill="#fef3c7"/>
  <!-- Leopard spots (brown) -->
  <circle cx="72" cy="100" r="3.5" fill="#92400e"/>
  <circle cx="128" cy="100" r="3.5" fill="#92400e"/>
  <circle cx="75" cy="115" r="3" fill="#92400e"/>
  <circle cx="125" cy="115" r="3" fill="#92400e"/>
  <circle cx="68" cy="108" r="2.5" fill="#92400e"/>
  <circle cx="132" cy="108" r="2.5" fill="#92400e"/>
  <circle cx="80" cy="90" r="2" fill="#92400e"/>
  <circle cx="120" cy="90" r="2" fill="#92400e"/>
  <!-- Body spots -->
  <circle cx="80" cy="152" r="4" fill="#92400e"/>
  <circle cx="120" cy="152" r="4" fill="#92400e"/>
  <circle cx="90" cy="172" r="3.5" fill="#92400e"/>
  <circle cx="110" cy="168" r="3" fill="#92400e"/>
  <circle cx="100" cy="180" r="3" fill="#92400e"/>
  <circle cx="85" cy="160" r="2.5" fill="#92400e"/>
  <circle cx="115" cy="162" r="2.5" fill="#92400e"/>

  <!-- Eyes -->
  <ellipse cx="90" cy="105" rx="7" ry="8" fill="white"/>
  <ellipse cx="110" cy="105" rx="7" ry="8" fill="white"/>
  <circle cx="91" cy="107" r="4" fill="#1e293b"/>
  <circle cx="111" cy="107" r="4" fill="#1e293b"/>
  <circle cx="92" cy="106" r="1.5" fill="white"/>
  <circle cx="112" cy="106" r="1.5" fill="white"/>

  <!-- Nose -->
  <ellipse cx="100" cy="118" rx="5" ry="3.5" fill="#1e293b"/>
  <!-- Mouth -->
  <path d="M95,123 Q100,128 105,123" fill="none" stroke="#1e293b" stroke-width="1.5" stroke-linecap="round"/>
  <!-- Whiskers -->
  <path d="M78,117 L89,117" fill="none" stroke="#78350f" stroke-width="0.8"/>
  <path d="M78,121 L88,120" fill="none" stroke="#78350f" stroke-width="0.8"/>
  <path d="M122,117 L111,117" fill="none" stroke="#78350f" stroke-width="0.8"/>
  <path d="M122,121 L112,120" fill="none" stroke="#78350f" stroke-width="0.8"/>

  <!-- Ears -->
  <ellipse cx="78" cy="85" rx="8" ry="10" fill="#fbbf24"/>
  <ellipse cx="78" cy="85" rx="5" ry="7" fill="#fde68a"/>
  <ellipse cx="122" cy="85" rx="8" ry="10" fill="#fbbf24"/>
  <ellipse cx="122" cy="85" rx="5" ry="7" fill="#fde68a"/>

  <!-- SOMBRERO -->
  <!-- Brim -->
  <ellipse cx="100" cy="80" rx="52" ry="12" fill="#92400e"/>
  <!-- Brim decoration -->
  <path d="M52,80 L58,75 L64,80 L70,75 L76,80 L82,75 L88,80 L94,75 L100,80 L106,75 L112,80 L118,75 L124,80 L130,75 L136,80 L142,75 L148,80" fill="none" stroke="#fbbf24" stroke-width="2"/>
  <!-- Crown -->
  <path d="M78,80 Q80,48 100,40 Q120,48 122,80" fill="#b45309"/>
  <!-- Crown band -->
  <rect x="80" y="62" width="40" height="8" rx="2" fill="#fbbf24"/>
  <path d="M82,66 L118,66" fill="none" stroke="#92400e" stroke-width="1"/>
  <!-- Top pompom -->
  <circle cx="100" cy="40" r="5" fill="#ef4444"/>
  <circle cx="100" cy="40" r="3" fill="#f87171"/>

  <!-- Green hair (Zakumi's signature green dreadlocks) -->
  <path d="M73,82 Q68,72 65,78" fill="none" stroke="#16a34a" stroke-width="3" stroke-linecap="round"/>
  <path d="M70,85 Q63,77 60,83" fill="none" stroke="#16a34a" stroke-width="2.5" stroke-linecap="round"/>
  <path d="M127,82 Q132,72 135,78" fill="none" stroke="#16a34a" stroke-width="3" stroke-linecap="round"/>
  <path d="M130,85 Q137,77 140,83" fill="none" stroke="#16a34a" stroke-width="2.5" stroke-linecap="round"/>
</svg>
