<svg xmlns="http://www.w3.org/2000/svg" viewBox="0 0 200 200" width="200" height="200">
  <circle cx="100" cy="100" r="95" fill="#00A049"/>
  <!-- Trophy cup -->
  <path d="M70 55 h60 l-5 50 c0 10-10 18-25 20 v15 h15 v10 h-30 v-10 h15 v-15 c-15-2-25-10-25-20 l-5-50z" fill="#FFD700" stroke="#B8860B" stroke-width="2"/>
  <!-- Left handle -->
  <path d="M70 60 c-15 0-25 10-25 25 c0 12 8 20 20 22" fill="none" stroke="#FFD700" stroke-width="6" stroke-linecap="round"/>
  <!-- Right handle -->
  <path d="M130 60 c15 0 25 10 25 25 c0 12-8 20-20 22" fill="none" stroke="#FFD700" stroke-width="6" stroke-linecap="round"/>
  <!-- Base -->
  <rect x="80" y="140" width="40" height="8" rx="2" fill="#FFD700" stroke="#B8860B" stroke-width="1"/>
  <rect x="75" y="148" width="50" height="10" rx="3" fill="#FFD700" stroke="#B8860B" stroke-width="1"/>
  <!-- Globe on trophy -->
  <circle cx="100" cy="78" r="12" fill="none" stroke="#B8860B" stroke-width="1.5"/>
  <ellipse cx="100" cy="78" rx="5" ry="12" fill="none" stroke="#B8860B" stroke-width="1"/>
  <line x1="88" y1="78" x2="112" y2="78" stroke="#B8860B" stroke-width="1"/>
</svg>
