<svg xmlns="http://www.w3.org/2000/svg" viewBox="0 0 200 240" width="200" height="240">
  <!-- Zakumi-style leopard body -->
  <!-- Body -->
  <ellipse cx="100" cy="165" rx="30" ry="35" fill="#4ade80"/>
  <!-- Arms -->
  <path d="M70,155 Q55,145 50,155 Q48,162 55,165" fill="#4ade80" stroke="#16a34a" stroke-width="1"/>
  <path d="M130,155 Q145,145 150,155 Q152,162 145,165" fill="#4ade80" stroke="#16a34a" stroke-width="1"/>
  <!-- Legs -->
  <rect x="82" y="192" width="12" height="20" rx="6" fill="#4ade80"/>
  <rect x="106" y="192" width="12" height="20" rx="6" fill="#4ade80"/>
  <!-- Feet -->
  <ellipse cx="88" cy="214" rx="9" ry="5" fill="#16a34a"/>
  <ellipse cx="112" cy="214" rx="9" ry="5" fill="#16a34a"/>

  <!-- Head -->
  <circle cx="100" cy="110" r="32" fill="#4ade80"/>
  <!-- Inner face (lighter) -->
  <ellipse cx="100" cy="115" rx="22" ry="20" fill="#86efac"/>
  <!-- Leopard spots -->
  <circle cx="72" cy="100" r="3" fill="#16a34a"/>
  <circle cx="128" cy="100" r="3" fill="#16a34a"/>
  <circle cx="75" cy="115" r="2.5" fill="#16a34a"/>
  <circle cx="125" cy="115" r="2.5" fill="#16a34a"/>
  <circle cx="70" cy="108" r="2" fill="#16a34a"/>
  <circle cx="130" cy="108" r="2" fill="#16a34a"/>
  <!-- Spots on body -->
  <circle cx="80" cy="155" r="3" fill="#16a34a"/>
  <circle cx="120" cy="155" r="3" fill="#16a34a"/>
  <circle cx="95" cy="175" r="2.5" fill="#16a34a"/>
  <circle cx="108" cy="170" r="2" fill="#16a34a"/>

  <!-- Eyes -->
  <ellipse cx="90" cy="105" rx="7" ry="8" fill="white"/>
  <ellipse cx="110" cy="105" rx="7" ry="8" fill="white"/>
  <circle cx="91" cy="107" r="4" fill="#1e293b"/>
  <circle cx="111" cy="107" r="4" fill="#1e293b"/>
  <circle cx="92" cy="106" r="1.5" fill="white"/>
  <circle cx="112" cy="106" r="1.5" fill="white"/>

  <!-- Nose -->
  <ellipse cx="100" cy="118" rx="5" ry="3.5" fill="#1e293b"/>
  <!-- Mouth -->
  <path d="M95,123 Q100,128 105,123" fill="none" stroke="#1e293b" stroke-width="1.5" stroke-linecap="round"/>
  <!-- Whiskers -->
  <path d="M80,118 L90,117" fill="none" stroke="#1e293b" stroke-width="0.8"/>
  <path d="M80,122 L89,120" fill="none" stroke="#1e293b" stroke-width="0.8"/>
  <path d="M120,118 L110,117" fill="none" stroke="#1e293b" stroke-width="0.8"/>
  <path d="M120,122 L111,120" fill="none" stroke="#1e293b" stroke-width="0.8"/>

  <!-- Ears -->
  <ellipse cx="78" cy="85" rx="8" ry="10" fill="#4ade80"/>
  <ellipse cx="78" cy="85" rx="5" ry="7" fill="#86efac"/>
  <ellipse cx="122" cy="85" rx="8" ry="10" fill="#4ade80"/>
  <ellipse cx="122" cy="85" rx="5" ry="7" fill="#86efac"/>

  <!-- SOMBRERO -->
  <!-- Brim -->
  <ellipse cx="100" cy="80" rx="52" ry="12" fill="#92400e"/>
  <!-- Brim underside shadow -->
  <ellipse cx="100" cy="82" rx="48" ry="9" fill="#78350f" opacity="0.5"/>
  <!-- Brim decoration - zigzag pattern -->
  <path d="M52,80 L58,75 L64,80 L70,75 L76,80 L82,75 L88,80 L94,75 L100,80 L106,75 L112,80 L118,75 L124,80 L130,75 L136,80 L142,75 L148,80" fill="none" stroke="#fbbf24" stroke-width="2"/>
  <!-- Crown -->
  <path d="M78,80 Q80,48 100,40 Q120,48 122,80" fill="#b45309"/>
  <!-- Crown band -->
  <rect x="80" y="62" width="40" height="8" rx="2" fill="#fbbf24"/>
  <!-- Band detail -->
  <path d="M82,66 L118,66" fill="none" stroke="#92400e" stroke-width="1"/>
  <!-- Top pompom -->
  <circle cx="100" cy="40" r="5" fill="#ef4444"/>
  <circle cx="100" cy="40" r="3" fill="#f87171"/>

  <!-- Green hair tufts poking from under sombrero -->
  <path d="M75,82 Q72,75 68,80" fill="none" stroke="#16a34a" stroke-width="2.5" stroke-linecap="round"/>
  <path d="M125,82 Q128,75 132,80" fill="none" stroke="#16a34a" stroke-width="2.5" stroke-linecap="round"/>
</svg>
